<?xml version="1.0" encoding="UTF-8" standalone="no"?><!DOCTYPE svg PUBLIC "-//W3C//DTD SVG 1.1//EN" "http://www.w3.org/Graphics/SVG/1.1/DTD/svg11.dtd"><svg width="100%" height="100%" viewBox="0 0 123 123" version="1.1" xmlns="http://www.w3.org/2000/svg" xmlns:xlink="http://www.w3.org/1999/xlink" xml:space="preserve" xmlns:serif="http://www.serif.com/" style="fill-rule:evenodd;clip-rule:evenodd;stroke-linejoin:round;stroke-miterlimit:1.41421;"><path d="M116.168,34.754c0,-15.003 -12.18,-27.183 -27.183,-27.183l-55.287,0c-15.003,0 -27.183,12.18 -27.183,27.183l0,54.366c0,15.003 12.18,27.183 27.183,27.183l55.287,0c15.003,0 27.183,-12.18 27.183,-27.183l0,-54.366Z" style="fill:#252222;"/><rect x="62.914" y="30.672" width="23.26" height="62.041" style="fill:#d8d3d3;"/><rect x="7.27" y="29.858" width="48.944" height="4.8" style="fill:#d8d3d3;"/><path d="M62.912,32.076l-15.273,9.258l0.139,-18.741l15.134,9.483Z" style="fill:#d8d3d3;"/><rect x="86.338" y="79.395" width="22.048" height="4.8" style="fill:#d8d3d3;"/><path d="M115.346,82.12l-12.082,8.262l0.124,-16.703l11.958,8.441Z" style="fill:#d8d3d3;"/><rect x="72.678" y="10.716" width="3.645" height="104.417" style="fill:#d8d3d3;"/></svg>