<?xml version="1.0" standalone="no"?>
<!DOCTYPE svg PUBLIC "-//W3C//DTD SVG 1.1//EN" "http://www.w3.org/Graphics/SVG/1.1/DTD/svg11.dtd">
<svg class="icon"
     viewBox="0 0 1024 1024"
     version="1.1"
     xmlns="http://www.w3.org/2000/svg"
     width="16" height="16">
    <defs>
        <style type="text/css"/>
    </defs>
    <path d="M813 387h-50V280c0-138.6-112.4-251-251-251S261 141.4 261 280v107h-50c-51.9 0-94 42.1-94 94v422c0 51.9 42.1 94 94 94h602c51.9 0 94-42.1 94-94V481c0-51.9-42.1-94-94-94zM309 280c0-54.2 21.1-105.2 59.5-143.5C406.8 98.1 457.8 77 512 77s105.2 21.1 143.5 59.5C693.9 174.8 715 225.8 715 280v107H309V280z m550 623c0 25.4-20.6 46-46 46H211c-25.4 0-46-20.6-46-46V481c0-25.4 20.6-46 46-46h602c25.4 0 46 20.6 46 46v422z"
          fill="#333333"/>
</svg>