<?xml version="1.0" encoding="UTF-8" standalone="no"?> <!-- Created with Vectornator for iOS (http://vectornator.io/) --><!DOCTYPE svg PUBLIC "-//W3C//DTD SVG 1.1//EN" "http://www.w3.org/Graphics/SVG/1.1/DTD/svg11.dtd">
<svg height="100%" style="fill-rule:nonzero;clip-rule:evenodd;stroke-linecap:round;stroke-linejoin:round;" xmlns:xlink="http://www.w3.org/1999/xlink" xmlns="http://www.w3.org/2000/svg" xml:space="preserve" width="100%" xmlns:vectornator="http://vectornator.io" version="1.1" viewBox="0 0 16 16">
<metadata>
<vectornator:setting key="DimensionsVisible" value="0"/>
<vectornator:setting key="PencilOnly" value="0"/>
<vectornator:setting key="SnapToPoints" value="0"/>
<vectornator:setting key="OutlineMode" value="0"/>
<vectornator:setting key="CMYKEnabledKey" value="0"/>
<vectornator:setting key="RulersVisible" value="1"/>
<vectornator:setting key="SnapToEdges" value="0"/>
<vectornator:setting key="GuidesVisible" value="1"/>
<vectornator:setting key="DisplayWhiteBackground" value="0"/>
<vectornator:setting key="doHistoryDisabled" value="0"/>
<vectornator:setting key="SnapToGuides" value="1"/>
<vectornator:setting key="TimeLapseWatermarkDisabled" value="0"/>
<vectornator:setting key="Units" value="Points"/>
<vectornator:setting key="DynamicGuides" value="1"/>
<vectornator:setting key="IsolateActiveLayer" value="0"/>
<vectornator:setting key="SnapToGrid" value="0"/>
</metadata>
<defs/>
<g id="Untitled" vectornator:layerName="Untitled">
<path d="M7+1L3+5L7+5L7+1ZM8+1L8+6L3+6L3+15L13+15L13+1L8+1ZM4.375+8L7.625+8C9.495+8+10.4375+8.5812+10.4375+9.75C10.4375+10.9269+9.47475+11.5+7.59375+11.5L5.5625+11.5L5.5625+13.75L4.375+13.75L4.375+8ZM5.5625+8.75L5.5625+10.75L7.53125+10.75C8.12525+10.75+8.56875+10.6925+8.84375+10.5312C9.10775+10.37+9.25+10.1047+9.25+9.75C9.25+9.39533+9.0875+9.14509+8.8125+9C8.5375+8.83879+8.11425+8.75+7.53125+8.75L5.5625+8.75Z" opacity="1" fill="#0a8beb"/>
</g>
</svg>
