<?xml version="1.0" standalone="no"?>
<!DOCTYPE svg PUBLIC "-//W3C//DTD SVG 1.1//EN" "http://www.w3.org/Graphics/SVG/1.1/DTD/svg11.dtd">
<svg class="icon"
     viewBox="0 0 1024 1024"
     version="1.1"
     xmlns="http://www.w3.org/2000/svg"
     width="16" height="16">
    <defs>
        <style type="text/css"/>
    </defs>
    <path d="M816.512 368.192l-55.36 32A285.632 285.632 0 0 1 800 544c0 158.816-129.184 288-288 288-106.368 0-199.264-58.144-249.12-144.16A285.856 285.856 0 0 1 224 544c0-158.816 129.216-288 288-288v96l192-128L512 96v96c-194.08 0-352 157.888-352 352 0 64.064 17.504 124 47.52 175.808C268.48 824.96 381.984 896 512 896c194.112 0 352-157.92 352-352 0-64.064-17.472-124-47.488-175.808"/>
</svg>