<?xml version="1.0" standalone="no"?><!DOCTYPE svg PUBLIC "-//W3C//DTD SVG 1.1//EN" "http://www.w3.org/Graphics/SVG/1.1/DTD/svg11.dtd"><svg xmlns:xlink="http://www.w3.org/1999/xlink" version="1.1" class="highcharts-root" style="font-family:system-ui, -apple-system, BlinkMacSystemFont, 'Segoe UI', Roboto, Oxygen, Ubuntu, Cantarell,                      'Droid Sans', 'Helvetica Neue', Arial, sans-serif;font-size:12px;" xmlns="http://www.w3.org/2000/svg" width="600" height="430" viewBox="0 0 600 430"><desc>Created with Highcharts 6.2.0</desc><defs><clipPath id="highcharts-dgbznay-2056"><rect x="0" y="0" width="554" height="268" fill="none"></rect></clipPath></defs><rect fill="#ffffff" class="highcharts-background" x="0" y="0" width="600" height="430" rx="0" ry="0"></rect><rect fill="none" class="highcharts-plot-background" x="36" y="100" width="554" height="268"></rect><g class="highcharts-grid highcharts-xaxis-grid " data-z-index="1"><path fill="none" data-z-index="1" class="highcharts-grid-line" d="M 41.5 100 L 41.5 368" opacity="1"></path><path fill="none" data-z-index="1" class="highcharts-grid-line" d="M 63.5 100 L 63.5 368" opacity="1"></path><path fill="none" data-z-index="1" class="highcharts-grid-line" d="M 86.5 100 L 86.5 368" opacity="1"></path><path fill="none" data-z-index="1" class="highcharts-grid-line" d="M 108.5 100 L 108.5 368" opacity="1"></path><path fill="none" data-z-index="1" class="highcharts-grid-line" d="M 131.5 100 L 131.5 368" opacity="1"></path><path fill="none" data-z-index="1" class="highcharts-grid-line" d="M 154.5 100 L 154.5 368" opacity="1"></path><path fill="none" data-z-index="1" class="highcharts-grid-line" d="M 176.5 100 L 176.5 368" opacity="1"></path><path fill="none" data-z-index="1" class="highcharts-grid-line" d="M 199.5 100 L 199.5 368" opacity="1"></path><path fill="none" data-z-index="1" class="highcharts-grid-line" d="M 222.5 100 L 222.5 368" opacity="1"></path><path fill="none" data-z-index="1" class="highcharts-grid-line" d="M 244.5 100 L 244.5 368" opacity="1"></path><path fill="none" data-z-index="1" class="highcharts-grid-line" d="M 267.5 100 L 267.5 368" opacity="1"></path><path fill="none" data-z-index="1" class="highcharts-grid-line" d="M 289.5 100 L 289.5 368" opacity="1"></path><path fill="none" data-z-index="1" class="highcharts-grid-line" d="M 312.5 100 L 312.5 368" opacity="1"></path><path fill="none" data-z-index="1" class="highcharts-grid-line" d="M 335.5 100 L 335.5 368" opacity="1"></path><path fill="none" data-z-index="1" class="highcharts-grid-line" d="M 357.5 100 L 357.5 368" opacity="1"></path><path fill="none" data-z-index="1" class="highcharts-grid-line" d="M 380.5 100 L 380.5 368" opacity="1"></path><path fill="none" data-z-index="1" class="highcharts-grid-line" d="M 402.5 100 L 402.5 368" opacity="1"></path><path fill="none" data-z-index="1" class="highcharts-grid-line" d="M 425.5 100 L 425.5 368" opacity="1"></path><path fill="none" data-z-index="1" class="highcharts-grid-line" d="M 448.5 100 L 448.5 368" opacity="1"></path><path fill="none" data-z-index="1" class="highcharts-grid-line" d="M 470.5 100 L 470.5 368" opacity="1"></path><path fill="none" data-z-index="1" class="highcharts-grid-line" d="M 493.5 100 L 493.5 368" opacity="1"></path><path fill="none" data-z-index="1" class="highcharts-grid-line" d="M 516.5 100 L 516.5 368" opacity="1"></path><path fill="none" data-z-index="1" class="highcharts-grid-line" d="M 538.5 100 L 538.5 368" opacity="1"></path><path fill="none" data-z-index="1" class="highcharts-grid-line" d="M 561.5 100 L 561.5 368" opacity="1"></path><path fill="none" data-z-index="1" class="highcharts-grid-line" d="M 583.5 100 L 583.5 368" opacity="1"></path></g><g class="highcharts-grid highcharts-yaxis-grid " data-z-index="1"><path fill="none" stroke="#e6e6e6" stroke-width="1" data-z-index="1" class="highcharts-grid-line" d="M 36 368.5 L 590 368.5" opacity="1"></path><path fill="none" stroke="#e6e6e6" stroke-width="1" data-z-index="1" class="highcharts-grid-line" d="M 36 323.5 L 590 323.5" opacity="1"></path><path fill="none" stroke="#e6e6e6" stroke-width="1" data-z-index="1" class="highcharts-grid-line" d="M 36 279.5 L 590 279.5" opacity="1"></path><path fill="none" stroke="#e6e6e6" stroke-width="1" data-z-index="1" class="highcharts-grid-line" d="M 36 234.5 L 590 234.5" opacity="1"></path><path fill="none" stroke="#e6e6e6" stroke-width="1" data-z-index="1" class="highcharts-grid-line" d="M 36 189.5 L 590 189.5" opacity="1"></path><path fill="none" stroke="#e6e6e6" stroke-width="1" data-z-index="1" class="highcharts-grid-line" d="M 36 145.5 L 590 145.5" opacity="1"></path><path fill="none" stroke="#e6e6e6" stroke-width="1" data-z-index="1" class="highcharts-grid-line" d="M 36 99.5 L 590 99.5" opacity="1"></path></g><rect fill="none" class="highcharts-plot-border" data-z-index="1" x="36" y="100" width="554" height="268"></rect><g class="highcharts-axis highcharts-xaxis " data-z-index="2"><path fill="none" class="highcharts-tick" stroke="#ccd6eb" stroke-width="1" d="M 41.5 368 L 41.5 378" opacity="1"></path><path fill="none" class="highcharts-tick" stroke="#ccd6eb" stroke-width="1" d="M 63.5 368 L 63.5 378" opacity="1"></path><path fill="none" class="highcharts-tick" stroke="#ccd6eb" stroke-width="1" d="M 86.5 368 L 86.5 378" opacity="1"></path><path fill="none" class="highcharts-tick" stroke="#ccd6eb" stroke-width="1" d="M 108.5 368 L 108.5 378" opacity="1"></path><path fill="none" class="highcharts-tick" stroke="#ccd6eb" stroke-width="1" d="M 131.5 368 L 131.5 378" opacity="1"></path><path fill="none" class="highcharts-tick" stroke="#ccd6eb" stroke-width="1" d="M 154.5 368 L 154.5 378" opacity="1"></path><path fill="none" class="highcharts-tick" stroke="#ccd6eb" stroke-width="1" d="M 176.5 368 L 176.5 378" opacity="1"></path><path fill="none" class="highcharts-tick" stroke="#ccd6eb" stroke-width="1" d="M 199.5 368 L 199.5 378" opacity="1"></path><path fill="none" class="highcharts-tick" stroke="#ccd6eb" stroke-width="1" d="M 222.5 368 L 222.5 378" opacity="1"></path><path fill="none" class="highcharts-tick" stroke="#ccd6eb" stroke-width="1" d="M 244.5 368 L 244.5 378" opacity="1"></path><path fill="none" class="highcharts-tick" stroke="#ccd6eb" stroke-width="1" d="M 267.5 368 L 267.5 378" opacity="1"></path><path fill="none" class="highcharts-tick" stroke="#ccd6eb" stroke-width="1" d="M 289.5 368 L 289.5 378" opacity="1"></path><path fill="none" class="highcharts-tick" stroke="#ccd6eb" stroke-width="1" d="M 312.5 368 L 312.5 378" opacity="1"></path><path fill="none" class="highcharts-tick" stroke="#ccd6eb" stroke-width="1" d="M 335.5 368 L 335.5 378" opacity="1"></path><path fill="none" class="highcharts-tick" stroke="#ccd6eb" stroke-width="1" d="M 357.5 368 L 357.5 378" opacity="1"></path><path fill="none" class="highcharts-tick" stroke="#ccd6eb" stroke-width="1" d="M 380.5 368 L 380.5 378" opacity="1"></path><path fill="none" class="highcharts-tick" stroke="#ccd6eb" stroke-width="1" d="M 402.5 368 L 402.5 378" opacity="1"></path><path fill="none" class="highcharts-tick" stroke="#ccd6eb" stroke-width="1" d="M 425.5 368 L 425.5 378" opacity="1"></path><path fill="none" class="highcharts-tick" stroke="#ccd6eb" stroke-width="1" d="M 448.5 368 L 448.5 378" opacity="1"></path><path fill="none" class="highcharts-tick" stroke="#ccd6eb" stroke-width="1" d="M 470.5 368 L 470.5 378" opacity="1"></path><path fill="none" class="highcharts-tick" stroke="#ccd6eb" stroke-width="1" d="M 493.5 368 L 493.5 378" opacity="1"></path><path fill="none" class="highcharts-tick" stroke="#ccd6eb" stroke-width="1" d="M 516.5 368 L 516.5 378" opacity="1"></path><path fill="none" class="highcharts-tick" stroke="#ccd6eb" stroke-width="1" d="M 538.5 368 L 538.5 378" opacity="1"></path><path fill="none" class="highcharts-tick" stroke="#ccd6eb" stroke-width="1" d="M 561.5 368 L 561.5 378" opacity="1"></path><path fill="none" class="highcharts-tick" stroke="#ccd6eb" stroke-width="1" d="M 583.5 368 L 583.5 378" opacity="1"></path><path fill="none" class="highcharts-axis-line" stroke="#ccd6eb" stroke-width="1" data-z-index="7" d="M 36 368.5 L 590 368.5"></path></g><g class="highcharts-axis highcharts-yaxis " data-z-index="2"><path fill="none" class="highcharts-axis-line" data-z-index="7" d="M 36 100 L 36 368"></path></g><g class="highcharts-series-group" data-z-index="3"><g data-z-index="0.1" class="highcharts-series highcharts-series-0 highcharts-column-series " transform="translate(36,100) scale(1 1)" clip-path="url(#highcharts-dgbznay-2056)"><rect x="4" y="258" width="5" height="11" fill="rgb(22, 125, 255)" class="highcharts-point"></rect><rect x="15" y="257" width="5" height="12" fill="rgb(22, 125, 255)" class="highcharts-point"></rect><rect x="26" y="255" width="5" height="14" fill="rgb(22, 125, 255)" class="highcharts-point"></rect><rect x="38" y="259" width="5" height="10" fill="rgb(22, 125, 255)" class="highcharts-point"></rect><rect x="49" y="254" width="5" height="15" fill="rgb(22, 125, 255)" class="highcharts-point"></rect><rect x="60" y="252" width="5" height="17" fill="rgb(22, 125, 255)" class="highcharts-point"></rect><rect x="71" y="240" width="5" height="29" fill="rgb(22, 125, 255)" class="highcharts-point"></rect><rect x="83" y="227" width="5" height="42" fill="rgb(22, 125, 255)" class="highcharts-point"></rect><rect x="94" y="241" width="5" height="28" fill="rgb(22, 125, 255)" class="highcharts-point"></rect><rect x="105" y="248" width="5" height="21" fill="rgb(22, 125, 255)" class="highcharts-point"></rect><rect x="117" y="252" width="5" height="17" fill="rgb(22, 125, 255)" class="highcharts-point"></rect><rect x="128" y="212" width="5" height="57" fill="rgb(22, 125, 255)" class="highcharts-point"></rect><rect x="139" y="224" width="5" height="45" fill="rgb(22, 125, 255)" class="highcharts-point"></rect><rect x="151" y="184" width="5" height="85" fill="rgb(22, 125, 255)" class="highcharts-point"></rect><rect x="162" y="184" width="5" height="85" fill="rgb(22, 125, 255)" class="highcharts-point"></rect><rect x="173" y="232" width="5" height="37" fill="rgb(22, 125, 255)" class="highcharts-point"></rect><rect x="185" y="237" width="5" height="32" fill="rgb(22, 125, 255)" class="highcharts-point"></rect><rect x="196" y="235" width="5" height="34" fill="rgb(22, 125, 255)" class="highcharts-point"></rect><rect x="207" y="174" width="5" height="95" fill="rgb(22, 125, 255)" class="highcharts-point"></rect><rect x="218" y="211" width="5" height="58" fill="rgb(22, 125, 255)" class="highcharts-point"></rect><rect x="230" y="227" width="5" height="42" fill="rgb(22, 125, 255)" class="highcharts-point"></rect><rect x="241" y="227" width="5" height="42" fill="rgb(22, 125, 255)" class="highcharts-point"></rect><rect x="252" y="233" width="5" height="36" fill="rgb(22, 125, 255)" class="highcharts-point"></rect><rect x="264" y="227" width="5" height="42" fill="rgb(22, 125, 255)" class="highcharts-point"></rect><rect x="275" y="224" width="5" height="45" fill="rgb(22, 125, 255)" class="highcharts-point"></rect><rect x="286" y="221" width="5" height="48" fill="rgb(22, 125, 255)" class="highcharts-point"></rect><rect x="298" y="231" width="5" height="38" fill="rgb(22, 125, 255)" class="highcharts-point"></rect><rect x="309" y="233" width="5" height="36" fill="rgb(22, 125, 255)" class="highcharts-point"></rect><rect x="320" y="160" width="5" height="109" fill="rgb(22, 125, 255)" class="highcharts-point"></rect><rect x="331" y="206" width="5" height="63" fill="rgb(22, 125, 255)" class="highcharts-point"></rect><rect x="343" y="208" width="5" height="61" fill="rgb(22, 125, 255)" class="highcharts-point"></rect><rect x="354" y="179" width="5" height="90" fill="rgb(22, 125, 255)" class="highcharts-point"></rect><rect x="365" y="206" width="5" height="63" fill="rgb(22, 125, 255)" class="highcharts-point"></rect><rect x="377" y="73" width="5" height="196" fill="rgb(22, 125, 255)" class="highcharts-point"></rect><rect x="388" y="147" width="5" height="122" fill="rgb(22, 125, 255)" class="highcharts-point"></rect><rect x="399" y="141" width="5" height="128" fill="rgb(22, 125, 255)" class="highcharts-point"></rect><rect x="411" y="47" width="5" height="222" fill="rgb(22, 125, 255)" class="highcharts-point"></rect><rect x="422" y="96" width="5" height="173" fill="rgb(22, 125, 255)" class="highcharts-point"></rect><rect x="433" y="140" width="5" height="129" fill="rgb(22, 125, 255)" class="highcharts-point"></rect><rect x="445" y="143" width="5" height="126" fill="rgb(22, 125, 255)" class="highcharts-point"></rect><rect x="456" y="147" width="5" height="122" fill="rgb(22, 125, 255)" class="highcharts-point"></rect><rect x="467" y="153" width="5" height="116" fill="rgb(22, 125, 255)" class="highcharts-point"></rect><rect x="478" y="154" width="5" height="115" fill="rgb(22, 125, 255)" class="highcharts-point"></rect><rect x="490" y="136" width="5" height="133" fill="rgb(22, 125, 255)" class="highcharts-point"></rect><rect x="501" y="125" width="5" height="144" fill="rgb(22, 125, 255)" class="highcharts-point"></rect><rect x="512" y="107" width="5" height="162" fill="rgb(22, 125, 255)" class="highcharts-point"></rect><rect x="524" y="141" width="5" height="128" fill="rgb(22, 125, 255)" class="highcharts-point"></rect><rect x="535" y="76" width="5" height="193" fill="rgb(22, 125, 255)" class="highcharts-point"></rect><rect x="546" y="220" width="5" height="49" fill="rgb(22, 125, 255)" class="highcharts-point"></rect></g><g data-z-index="0.1" class="highcharts-markers highcharts-series-0 highcharts-column-series " transform="translate(36,100) scale(1 1)" clip-path="none"></g></g><text x="300" text-anchor="middle" class="highcharts-title" data-z-index="4" style="color:#333333;font-size:18px;fill:#333333;" y="114"></text><text x="300" text-anchor="middle" class="highcharts-subtitle" data-z-index="4" style="color:#666666;fill:#666666;" y="114"></text><g class="highcharts-axis-labels highcharts-xaxis-labels " data-z-index="7"><text x="44.245786088840674" style="color:#666666;cursor:default;font-size:11px;fill:#666666;" text-anchor="end" transform="translate(0,0) rotate(-45 44.245786088840674 384)" y="384" opacity="1"><tspan>Apr. '16</tspan></text><text x="66.85803098679968" style="color:#666666;cursor:default;font-size:11px;fill:#666666;" text-anchor="end" transform="translate(0,0) rotate(-45 66.85803098679968 384)" y="384" opacity="1"><tspan>June '16</tspan></text><text x="89.47027588475868" style="color:#666666;cursor:default;font-size:11px;fill:#666666;" text-anchor="end" transform="translate(0,0) rotate(-45 89.47027588475868 384)" y="384" opacity="1"><tspan>Aug. '16</tspan></text><text x="112.08252078272068" style="color:#666666;cursor:default;font-size:11px;fill:#666666;" text-anchor="end" transform="translate(0,0) rotate(-45 112.08252078272068 384)" y="384" opacity="1"><tspan>Oct. '16</tspan></text><text x="134.6947656806807" style="color:#666666;cursor:default;font-size:11px;fill:#666666;" text-anchor="end" transform="translate(0,0) rotate(-45 134.6947656806807 384)" y="384" opacity="1"><tspan>Dec. '16</tspan></text><text x="157.3070105786407" style="color:#666666;cursor:default;font-size:11px;fill:#666666;" text-anchor="end" transform="translate(0,0) rotate(-45 157.3070105786407 384)" y="384" opacity="1"><tspan>Feb. '17</tspan></text><text x="179.91925547659068" style="color:#666666;cursor:default;font-size:11px;fill:#666666;" text-anchor="end" transform="translate(0,0) rotate(-45 179.91925547659068 384)" y="384" opacity="1"><tspan>Apr. '17</tspan></text><text x="202.5315003745507" style="color:#666666;cursor:default;font-size:11px;fill:#666666;" text-anchor="end" transform="translate(0,0) rotate(-45 202.5315003745507 384)" y="384" opacity="1"><tspan>June '17</tspan></text><text x="225.1437452725107" style="color:#666666;cursor:default;font-size:11px;fill:#666666;" text-anchor="end" transform="translate(0,0) rotate(-45 225.1437452725107 384)" y="384" opacity="1"><tspan>Aug. '17</tspan></text><text x="247.75599017047068" style="color:#666666;cursor:default;font-size:11px;fill:#666666;" text-anchor="end" transform="translate(0,0) rotate(-45 247.75599017047068 384)" y="384" opacity="1"><tspan>Oct. '17</tspan></text><text x="270.36823506843064" style="color:#666666;cursor:default;font-size:11px;fill:#666666;" text-anchor="end" transform="translate(0,0) rotate(-45 270.36823506843064 384)" y="384" opacity="1"><tspan>Dec. '17</tspan></text><text x="292.98047996639065" style="color:#666666;cursor:default;font-size:11px;fill:#666666;" text-anchor="end" transform="translate(0,0) rotate(-45 292.98047996639065 384)" y="384" opacity="1"><tspan>Feb. '18</tspan></text><text x="315.59272486435066" style="color:#666666;cursor:default;font-size:11px;fill:#666666;" text-anchor="end" transform="translate(0,0) rotate(-45 315.59272486435066 384)" y="384" opacity="1"><tspan>Apr. '18</tspan></text><text x="338.20496976231067" style="color:#666666;cursor:default;font-size:11px;fill:#666666;" text-anchor="end" transform="translate(0,0) rotate(-45 338.20496976231067 384)" y="384" opacity="1"><tspan>June '18</tspan></text><text x="360.8172146602707" style="color:#666666;cursor:default;font-size:11px;fill:#666666;" text-anchor="end" transform="translate(0,0) rotate(-45 360.8172146602707 384)" y="384" opacity="1"><tspan>Aug. '18</tspan></text><text x="383.42945955823063" style="color:#666666;cursor:default;font-size:11px;fill:#666666;" text-anchor="end" transform="translate(0,0) rotate(-45 383.42945955823063 384)" y="384" opacity="1"><tspan>Oct. '18</tspan></text><text x="406.04170445619064" style="color:#666666;cursor:default;font-size:11px;fill:#666666;" text-anchor="end" transform="translate(0,0) rotate(-45 406.04170445619064 384)" y="384" opacity="1"><tspan>Dec. '18</tspan></text><text x="428.65394935415065" style="color:#666666;cursor:default;font-size:11px;fill:#666666;" text-anchor="end" transform="translate(0,0) rotate(-45 428.65394935415065 384)" y="384" opacity="1"><tspan>Feb. '19</tspan></text><text x="451.26619425211067" style="color:#666666;cursor:default;font-size:11px;fill:#666666;" text-anchor="end" transform="translate(0,0) rotate(-45 451.26619425211067 384)" y="384" opacity="1"><tspan>Apr. '19</tspan></text><text x="473.8784391500607" style="color:#666666;cursor:default;font-size:11px;fill:#666666;" text-anchor="end" transform="translate(0,0) rotate(-45 473.8784391500607 384)" y="384" opacity="1"><tspan>June '19</tspan></text><text x="496.4906840480207" style="color:#666666;cursor:default;font-size:11px;fill:#666666;" text-anchor="end" transform="translate(0,0) rotate(-45 496.4906840480207 384)" y="384" opacity="1"><tspan>Aug. '19</tspan></text><text x="519.1029289459807" style="color:#666666;cursor:default;font-size:11px;fill:#666666;" text-anchor="end" transform="translate(0,0) rotate(-45 519.1029289459807 384)" y="384" opacity="1"><tspan>Oct. '19</tspan></text><text x="541.7151738439406" style="color:#666666;cursor:default;font-size:11px;fill:#666666;" text-anchor="end" transform="translate(0,0) rotate(-45 541.7151738439406 384)" y="384" opacity="1"><tspan>Dec. '19</tspan></text><text x="564.3274187419006" style="color:#666666;cursor:default;font-size:11px;fill:#666666;" text-anchor="end" transform="translate(0,0) rotate(-45 564.3274187419006 384)" y="384" opacity="1"><tspan>Feb. '20</tspan></text><text x="586.9396636398607" style="color:#666666;cursor:default;font-size:11px;fill:#666666;" text-anchor="end" transform="translate(0,0) rotate(-45 586.9396636398607 384)" y="384" opacity="1"><tspan>Apr. '20</tspan></text></g><g class="highcharts-axis-labels highcharts-yaxis-labels " data-z-index="7"><text x="21" style="color:#666666;cursor:default;font-size:11px;fill:#666666;" text-anchor="end" transform="translate(0,0)" y="373" opacity="1">0</text><text x="21" style="color:#666666;cursor:default;font-size:11px;fill:#666666;" text-anchor="end" transform="translate(0,0)" y="328" opacity="1">1k</text><text x="21" style="color:#666666;cursor:default;font-size:11px;fill:#666666;" text-anchor="end" transform="translate(0,0)" y="283" opacity="1">2k</text><text x="21" style="color:#666666;cursor:default;font-size:11px;fill:#666666;" text-anchor="end" transform="translate(0,0)" y="239" opacity="1">3k</text><text x="21" style="color:#666666;cursor:default;font-size:11px;fill:#666666;" text-anchor="end" transform="translate(0,0)" y="194" opacity="1">4k</text><text x="21" style="color:#666666;cursor:default;font-size:11px;fill:#666666;" text-anchor="end" transform="translate(0,0)" y="149" opacity="1">5k</text><text x="21" style="color:#666666;cursor:default;font-size:11px;fill:#666666;" text-anchor="end" transform="translate(0,0)" y="105" opacity="1">6k</text></g></svg>