<?xml version="1.0" standalone="no"?><!DOCTYPE svg PUBLIC "-//W3C//DTD SVG 1.1//EN" "http://www.w3.org/Graphics/SVG/1.1/DTD/svg11.dtd"><svg xmlns:xlink="http://www.w3.org/1999/xlink" version="1.1" class="highcharts-root" style="font-family:system-ui, -apple-system, BlinkMacSystemFont, 'Segoe UI', Roboto, Oxygen, Ubuntu, Cantarell,                      'Droid Sans', 'Helvetica Neue', Arial, sans-serif;font-size:12px;" xmlns="http://www.w3.org/2000/svg" width="600" height="430" viewBox="0 0 600 430"><desc>Created with Highcharts 6.2.0</desc><defs><clipPath id="highcharts-iru7rgl-125"><rect x="0" y="0" width="548" height="269" fill="none"></rect></clipPath></defs><rect fill="#ffffff" class="highcharts-background" x="0" y="0" width="600" height="430" rx="0" ry="0"></rect><rect fill="none" class="highcharts-plot-background" x="42" y="100" width="548" height="269"></rect><g class="highcharts-grid highcharts-xaxis-grid " data-z-index="1"><path fill="none" data-z-index="1" class="highcharts-grid-line" d="M 46.5 100 L 46.5 369" opacity="1"></path><path fill="none" data-z-index="1" class="highcharts-grid-line" d="M 65.5 100 L 65.5 369" opacity="1"></path><path fill="none" data-z-index="1" class="highcharts-grid-line" d="M 84.5 100 L 84.5 369" opacity="1"></path><path fill="none" data-z-index="1" class="highcharts-grid-line" d="M 102.5 100 L 102.5 369" opacity="1"></path><path fill="none" data-z-index="1" class="highcharts-grid-line" d="M 121.5 100 L 121.5 369" opacity="1"></path><path fill="none" data-z-index="1" class="highcharts-grid-line" d="M 140.5 100 L 140.5 369" opacity="1"></path><path fill="none" data-z-index="1" class="highcharts-grid-line" d="M 159.5 100 L 159.5 369" opacity="1"></path><path fill="none" data-z-index="1" class="highcharts-grid-line" d="M 178.5 100 L 178.5 369" opacity="1"></path><path fill="none" data-z-index="1" class="highcharts-grid-line" d="M 197.5 100 L 197.5 369" opacity="1"></path><path fill="none" data-z-index="1" class="highcharts-grid-line" d="M 216.5 100 L 216.5 369" opacity="1"></path><path fill="none" data-z-index="1" class="highcharts-grid-line" d="M 235.5 100 L 235.5 369" opacity="1"></path><path fill="none" data-z-index="1" class="highcharts-grid-line" d="M 254.5 100 L 254.5 369" opacity="1"></path><path fill="none" data-z-index="1" class="highcharts-grid-line" d="M 272.5 100 L 272.5 369" opacity="1"></path><path fill="none" data-z-index="1" class="highcharts-grid-line" d="M 291.5 100 L 291.5 369" opacity="1"></path><path fill="none" data-z-index="1" class="highcharts-grid-line" d="M 310.5 100 L 310.5 369" opacity="1"></path><path fill="none" data-z-index="1" class="highcharts-grid-line" d="M 329.5 100 L 329.5 369" opacity="1"></path><path fill="none" data-z-index="1" class="highcharts-grid-line" d="M 348.5 100 L 348.5 369" opacity="1"></path><path fill="none" data-z-index="1" class="highcharts-grid-line" d="M 367.5 100 L 367.5 369" opacity="1"></path><path fill="none" data-z-index="1" class="highcharts-grid-line" d="M 386.5 100 L 386.5 369" opacity="1"></path><path fill="none" data-z-index="1" class="highcharts-grid-line" d="M 405.5 100 L 405.5 369" opacity="1"></path><path fill="none" data-z-index="1" class="highcharts-grid-line" d="M 424.5 100 L 424.5 369" opacity="1"></path><path fill="none" data-z-index="1" class="highcharts-grid-line" d="M 443.5 100 L 443.5 369" opacity="1"></path><path fill="none" data-z-index="1" class="highcharts-grid-line" d="M 461.5 100 L 461.5 369" opacity="1"></path><path fill="none" data-z-index="1" class="highcharts-grid-line" d="M 480.5 100 L 480.5 369" opacity="1"></path><path fill="none" data-z-index="1" class="highcharts-grid-line" d="M 499.5 100 L 499.5 369" opacity="1"></path><path fill="none" data-z-index="1" class="highcharts-grid-line" d="M 518.5 100 L 518.5 369" opacity="1"></path><path fill="none" data-z-index="1" class="highcharts-grid-line" d="M 537.5 100 L 537.5 369" opacity="1"></path><path fill="none" data-z-index="1" class="highcharts-grid-line" d="M 556.5 100 L 556.5 369" opacity="1"></path><path fill="none" data-z-index="1" class="highcharts-grid-line" d="M 575.5 100 L 575.5 369" opacity="1"></path></g><g class="highcharts-grid highcharts-yaxis-grid " data-z-index="1"><path fill="none" stroke="#e6e6e6" stroke-width="1" data-z-index="1" class="highcharts-grid-line" d="M 42 369.5 L 590 369.5" opacity="1"></path><path fill="none" stroke="#e6e6e6" stroke-width="1" data-z-index="1" class="highcharts-grid-line" d="M 42 302.5 L 590 302.5" opacity="1"></path><path fill="none" stroke="#e6e6e6" stroke-width="1" data-z-index="1" class="highcharts-grid-line" d="M 42 235.5 L 590 235.5" opacity="1"></path><path fill="none" stroke="#e6e6e6" stroke-width="1" data-z-index="1" class="highcharts-grid-line" d="M 42 167.5 L 590 167.5" opacity="1"></path><path fill="none" stroke="#e6e6e6" stroke-width="1" data-z-index="1" class="highcharts-grid-line" d="M 42 99.5 L 590 99.5" opacity="1"></path></g><rect fill="none" class="highcharts-plot-border" data-z-index="1" x="42" y="100" width="548" height="269"></rect><g class="highcharts-axis highcharts-xaxis " data-z-index="2"><path fill="none" class="highcharts-tick" stroke="#ccd6eb" stroke-width="1" d="M 46.5 369 L 46.5 379" opacity="1"></path><path fill="none" class="highcharts-tick" stroke="#ccd6eb" stroke-width="1" d="M 65.5 369 L 65.5 379" opacity="1"></path><path fill="none" class="highcharts-tick" stroke="#ccd6eb" stroke-width="1" d="M 84.5 369 L 84.5 379" opacity="1"></path><path fill="none" class="highcharts-tick" stroke="#ccd6eb" stroke-width="1" d="M 102.5 369 L 102.5 379" opacity="1"></path><path fill="none" class="highcharts-tick" stroke="#ccd6eb" stroke-width="1" d="M 121.5 369 L 121.5 379" opacity="1"></path><path fill="none" class="highcharts-tick" stroke="#ccd6eb" stroke-width="1" d="M 140.5 369 L 140.5 379" opacity="1"></path><path fill="none" class="highcharts-tick" stroke="#ccd6eb" stroke-width="1" d="M 159.5 369 L 159.5 379" opacity="1"></path><path fill="none" class="highcharts-tick" stroke="#ccd6eb" stroke-width="1" d="M 178.5 369 L 178.5 379" opacity="1"></path><path fill="none" class="highcharts-tick" stroke="#ccd6eb" stroke-width="1" d="M 197.5 369 L 197.5 379" opacity="1"></path><path fill="none" class="highcharts-tick" stroke="#ccd6eb" stroke-width="1" d="M 216.5 369 L 216.5 379" opacity="1"></path><path fill="none" class="highcharts-tick" stroke="#ccd6eb" stroke-width="1" d="M 235.5 369 L 235.5 379" opacity="1"></path><path fill="none" class="highcharts-tick" stroke="#ccd6eb" stroke-width="1" d="M 254.5 369 L 254.5 379" opacity="1"></path><path fill="none" class="highcharts-tick" stroke="#ccd6eb" stroke-width="1" d="M 272.5 369 L 272.5 379" opacity="1"></path><path fill="none" class="highcharts-tick" stroke="#ccd6eb" stroke-width="1" d="M 291.5 369 L 291.5 379" opacity="1"></path><path fill="none" class="highcharts-tick" stroke="#ccd6eb" stroke-width="1" d="M 310.5 369 L 310.5 379" opacity="1"></path><path fill="none" class="highcharts-tick" stroke="#ccd6eb" stroke-width="1" d="M 329.5 369 L 329.5 379" opacity="1"></path><path fill="none" class="highcharts-tick" stroke="#ccd6eb" stroke-width="1" d="M 348.5 369 L 348.5 379" opacity="1"></path><path fill="none" class="highcharts-tick" stroke="#ccd6eb" stroke-width="1" d="M 367.5 369 L 367.5 379" opacity="1"></path><path fill="none" class="highcharts-tick" stroke="#ccd6eb" stroke-width="1" d="M 386.5 369 L 386.5 379" opacity="1"></path><path fill="none" class="highcharts-tick" stroke="#ccd6eb" stroke-width="1" d="M 405.5 369 L 405.5 379" opacity="1"></path><path fill="none" class="highcharts-tick" stroke="#ccd6eb" stroke-width="1" d="M 424.5 369 L 424.5 379" opacity="1"></path><path fill="none" class="highcharts-tick" stroke="#ccd6eb" stroke-width="1" d="M 443.5 369 L 443.5 379" opacity="1"></path><path fill="none" class="highcharts-tick" stroke="#ccd6eb" stroke-width="1" d="M 461.5 369 L 461.5 379" opacity="1"></path><path fill="none" class="highcharts-tick" stroke="#ccd6eb" stroke-width="1" d="M 480.5 369 L 480.5 379" opacity="1"></path><path fill="none" class="highcharts-tick" stroke="#ccd6eb" stroke-width="1" d="M 499.5 369 L 499.5 379" opacity="1"></path><path fill="none" class="highcharts-tick" stroke="#ccd6eb" stroke-width="1" d="M 518.5 369 L 518.5 379" opacity="1"></path><path fill="none" class="highcharts-tick" stroke="#ccd6eb" stroke-width="1" d="M 537.5 369 L 537.5 379" opacity="1"></path><path fill="none" class="highcharts-tick" stroke="#ccd6eb" stroke-width="1" d="M 556.5 369 L 556.5 379" opacity="1"></path><path fill="none" class="highcharts-tick" stroke="#ccd6eb" stroke-width="1" d="M 575.5 369 L 575.5 379" opacity="1"></path><path fill="none" class="highcharts-axis-line" stroke="#ccd6eb" stroke-width="1" data-z-index="7" d="M 42 369.5 L 590 369.5"></path></g><g class="highcharts-axis highcharts-yaxis " data-z-index="2"><path fill="none" class="highcharts-axis-line" data-z-index="7" d="M 42 100 L 42 369"></path></g><g class="highcharts-series-group" data-z-index="3"><g data-z-index="0.1" class="highcharts-series highcharts-series-0 highcharts-column-series " transform="translate(42,100) scale(1 1)" clip-path="url(#highcharts-iru7rgl-125)"><rect x="2" y="267" width="5" height="3" fill="rgb(22, 125, 255)" class="highcharts-point"></rect><rect x="12" y="266" width="5" height="4" fill="rgb(22, 125, 255)" class="highcharts-point"></rect><rect x="21" y="266" width="5" height="4" fill="rgb(22, 125, 255)" class="highcharts-point"></rect><rect x="31" y="267" width="5" height="3" fill="rgb(22, 125, 255)" class="highcharts-point"></rect><rect x="40" y="266" width="5" height="4" fill="rgb(22, 125, 255)" class="highcharts-point"></rect><rect x="50" y="265" width="5" height="5" fill="rgb(22, 125, 255)" class="highcharts-point"></rect><rect x="59" y="261" width="5" height="9" fill="rgb(22, 125, 255)" class="highcharts-point"></rect><rect x="69" y="257" width="5" height="13" fill="rgb(22, 125, 255)" class="highcharts-point"></rect><rect x="78" y="262" width="5" height="8" fill="rgb(22, 125, 255)" class="highcharts-point"></rect><rect x="87" y="264" width="5" height="6" fill="rgb(22, 125, 255)" class="highcharts-point"></rect><rect x="97" y="265" width="5" height="5" fill="rgb(22, 125, 255)" class="highcharts-point"></rect><rect x="106" y="253" width="5" height="17" fill="rgb(22, 125, 255)" class="highcharts-point"></rect><rect x="116" y="257" width="5" height="13" fill="rgb(22, 125, 255)" class="highcharts-point"></rect><rect x="125" y="244" width="5" height="26" fill="rgb(22, 125, 255)" class="highcharts-point"></rect><rect x="135" y="244" width="5" height="26" fill="rgb(22, 125, 255)" class="highcharts-point"></rect><rect x="144" y="259" width="5" height="11" fill="rgb(22, 125, 255)" class="highcharts-point"></rect><rect x="154" y="260" width="5" height="10" fill="rgb(22, 125, 255)" class="highcharts-point"></rect><rect x="163" y="260" width="5" height="10" fill="rgb(22, 125, 255)" class="highcharts-point"></rect><rect x="173" y="241" width="5" height="29" fill="rgb(22, 125, 255)" class="highcharts-point"></rect><rect x="182" y="253" width="5" height="17" fill="rgb(22, 125, 255)" class="highcharts-point"></rect><rect x="191" y="257" width="5" height="13" fill="rgb(22, 125, 255)" class="highcharts-point"></rect><rect x="201" y="257" width="5" height="13" fill="rgb(22, 125, 255)" class="highcharts-point"></rect><rect x="210" y="259" width="5" height="11" fill="rgb(22, 125, 255)" class="highcharts-point"></rect><rect x="220" y="257" width="5" height="13" fill="rgb(22, 125, 255)" class="highcharts-point"></rect><rect x="229" y="256" width="5" height="14" fill="rgb(22, 125, 255)" class="highcharts-point"></rect><rect x="239" y="256" width="5" height="14" fill="rgb(22, 125, 255)" class="highcharts-point"></rect><rect x="248" y="259" width="5" height="11" fill="rgb(22, 125, 255)" class="highcharts-point"></rect><rect x="258" y="259" width="5" height="11" fill="rgb(22, 125, 255)" class="highcharts-point"></rect><rect x="267" y="237" width="5" height="33" fill="rgb(22, 125, 255)" class="highcharts-point"></rect><rect x="276" y="251" width="5" height="19" fill="rgb(22, 125, 255)" class="highcharts-point"></rect><rect x="286" y="252" width="5" height="18" fill="rgb(22, 125, 255)" class="highcharts-point"></rect><rect x="295" y="243" width="5" height="27" fill="rgb(22, 125, 255)" class="highcharts-point"></rect><rect x="305" y="251" width="5" height="19" fill="rgb(22, 125, 255)" class="highcharts-point"></rect><rect x="314" y="211" width="5" height="59" fill="rgb(22, 125, 255)" class="highcharts-point"></rect><rect x="324" y="233" width="5" height="37" fill="rgb(22, 125, 255)" class="highcharts-point"></rect><rect x="333" y="231" width="5" height="39" fill="rgb(22, 125, 255)" class="highcharts-point"></rect><rect x="343" y="203" width="5" height="67" fill="rgb(22, 125, 255)" class="highcharts-point"></rect><rect x="352" y="218" width="5" height="52" fill="rgb(22, 125, 255)" class="highcharts-point"></rect><rect x="361" y="231" width="5" height="39" fill="rgb(22, 125, 255)" class="highcharts-point"></rect><rect x="371" y="232" width="5" height="38" fill="rgb(22, 125, 255)" class="highcharts-point"></rect><rect x="380" y="233" width="5" height="37" fill="rgb(22, 125, 255)" class="highcharts-point"></rect><rect x="390" y="235" width="5" height="35" fill="rgb(22, 125, 255)" class="highcharts-point"></rect><rect x="399" y="235" width="5" height="35" fill="rgb(22, 125, 255)" class="highcharts-point"></rect><rect x="409" y="230" width="5" height="40" fill="rgb(22, 125, 255)" class="highcharts-point"></rect><rect x="418" y="227" width="5" height="43" fill="rgb(22, 125, 255)" class="highcharts-point"></rect><rect x="428" y="221" width="5" height="49" fill="rgb(22, 125, 255)" class="highcharts-point"></rect><rect x="437" y="231" width="5" height="39" fill="rgb(22, 125, 255)" class="highcharts-point"></rect><rect x="447" y="212" width="5" height="58" fill="rgb(22, 125, 255)" class="highcharts-point"></rect><rect x="456" y="127" width="5" height="143" fill="rgb(22, 125, 255)" class="highcharts-point"></rect><rect x="465" y="102" width="5" height="168" fill="rgb(22, 125, 255)" class="highcharts-point"></rect><rect x="475" y="155" width="5" height="115" fill="rgb(22, 125, 255)" class="highcharts-point"></rect><rect x="484" y="119" width="5" height="151" fill="rgb(22, 125, 255)" class="highcharts-point"></rect><rect x="494" y="73" width="5" height="197" fill="rgb(22, 125, 255)" class="highcharts-point"></rect><rect x="503" y="140" width="5" height="130" fill="rgb(22, 125, 255)" class="highcharts-point"></rect><rect x="513" y="107" width="5" height="163" fill="rgb(22, 125, 255)" class="highcharts-point"></rect><rect x="522" y="138" width="5" height="132" fill="rgb(22, 125, 255)" class="highcharts-point"></rect><rect x="532" y="17" width="5" height="253" fill="rgb(22, 125, 255)" class="highcharts-point"></rect><rect x="541" y="77" width="5" height="193" fill="rgb(22, 125, 255)" class="highcharts-point"></rect></g><g data-z-index="0.1" class="highcharts-markers highcharts-series-0 highcharts-column-series " transform="translate(42,100) scale(1 1)" clip-path="none"></g></g><text x="300" text-anchor="middle" class="highcharts-title" data-z-index="4" style="color:#333333;font-size:18px;fill:#333333;" y="114"></text><text x="300" text-anchor="middle" class="highcharts-subtitle" data-z-index="4" style="color:#666666;fill:#666666;" y="114"></text><g class="highcharts-axis-labels highcharts-xaxis-labels " data-z-index="7"><text x="49.31686279538467" style="color:#666666;cursor:default;font-size:11px;fill:#666666;" text-anchor="end" transform="translate(0,0) rotate(-45 49.31686279538467 385)" y="385" opacity="1"><tspan>Apr. '16</tspan></text><text x="68.21341451952267" style="color:#666666;cursor:default;font-size:11px;fill:#666666;" text-anchor="end" transform="translate(0,0) rotate(-45 68.21341451952267 385)" y="385" opacity="1"><tspan>June '16</tspan></text><text x="87.10996624366066" style="color:#666666;cursor:default;font-size:11px;fill:#666666;" text-anchor="end" transform="translate(0,0) rotate(-45 87.10996624366066 385)" y="385" opacity="1"><tspan>Aug. '16</tspan></text><text x="106.00651796780068" style="color:#666666;cursor:default;font-size:11px;fill:#666666;" text-anchor="end" transform="translate(0,0) rotate(-45 106.00651796780068 385)" y="385" opacity="1"><tspan>Oct. '16</tspan></text><text x="124.90306969194067" style="color:#666666;cursor:default;font-size:11px;fill:#666666;" text-anchor="end" transform="translate(0,0) rotate(-45 124.90306969194067 385)" y="385" opacity="1"><tspan>Dec. '16</tspan></text><text x="143.7996214160707" style="color:#666666;cursor:default;font-size:11px;fill:#666666;" text-anchor="end" transform="translate(0,0) rotate(-45 143.7996214160707 385)" y="385" opacity="1"><tspan>Feb. '17</tspan></text><text x="162.69617314021068" style="color:#666666;cursor:default;font-size:11px;fill:#666666;" text-anchor="end" transform="translate(0,0) rotate(-45 162.69617314021068 385)" y="385" opacity="1"><tspan>Apr. '17</tspan></text><text x="181.59272486435069" style="color:#666666;cursor:default;font-size:11px;fill:#666666;" text-anchor="end" transform="translate(0,0) rotate(-45 181.59272486435069 385)" y="385" opacity="1"><tspan>June '17</tspan></text><text x="200.4892765884907" style="color:#666666;cursor:default;font-size:11px;fill:#666666;" text-anchor="end" transform="translate(0,0) rotate(-45 200.4892765884907 385)" y="385" opacity="1"><tspan>Aug. '17</tspan></text><text x="219.38582831263068" style="color:#666666;cursor:default;font-size:11px;fill:#666666;" text-anchor="end" transform="translate(0,0) rotate(-45 219.38582831263068 385)" y="385" opacity="1"><tspan>Oct. '17</tspan></text><text x="238.28238003676069" style="color:#666666;cursor:default;font-size:11px;fill:#666666;" text-anchor="end" transform="translate(0,0) rotate(-45 238.28238003676069 385)" y="385" opacity="1"><tspan>Dec. '17</tspan></text><text x="257.1789317609007" style="color:#666666;cursor:default;font-size:11px;fill:#666666;" text-anchor="end" transform="translate(0,0) rotate(-45 257.1789317609007 385)" y="385" opacity="1"><tspan>Feb. '18</tspan></text><text x="276.07548348504065" style="color:#666666;cursor:default;font-size:11px;fill:#666666;" text-anchor="end" transform="translate(0,0) rotate(-45 276.07548348504065 385)" y="385" opacity="1"><tspan>Apr. '18</tspan></text><text x="294.97203520918066" style="color:#666666;cursor:default;font-size:11px;fill:#666666;" text-anchor="end" transform="translate(0,0) rotate(-45 294.97203520918066 385)" y="385" opacity="1"><tspan>June '18</tspan></text><text x="313.86858693332067" style="color:#666666;cursor:default;font-size:11px;fill:#666666;" text-anchor="end" transform="translate(0,0) rotate(-45 313.86858693332067 385)" y="385" opacity="1"><tspan>Aug. '18</tspan></text><text x="332.7651386574507" style="color:#666666;cursor:default;font-size:11px;fill:#666666;" text-anchor="end" transform="translate(0,0) rotate(-45 332.7651386574507 385)" y="385" opacity="1"><tspan>Oct. '18</tspan></text><text x="351.66169038159063" style="color:#666666;cursor:default;font-size:11px;fill:#666666;" text-anchor="end" transform="translate(0,0) rotate(-45 351.66169038159063 385)" y="385" opacity="1"><tspan>Dec. '18</tspan></text><text x="370.55824210573064" style="color:#666666;cursor:default;font-size:11px;fill:#666666;" text-anchor="end" transform="translate(0,0) rotate(-45 370.55824210573064 385)" y="385" opacity="1"><tspan>Feb. '19</tspan></text><text x="389.45479382987065" style="color:#666666;cursor:default;font-size:11px;fill:#666666;" text-anchor="end" transform="translate(0,0) rotate(-45 389.45479382987065 385)" y="385" opacity="1"><tspan>Apr. '19</tspan></text><text x="408.35134555401066" style="color:#666666;cursor:default;font-size:11px;fill:#666666;" text-anchor="end" transform="translate(0,0) rotate(-45 408.35134555401066 385)" y="385" opacity="1"><tspan>June '19</tspan></text><text x="427.24789727814067" style="color:#666666;cursor:default;font-size:11px;fill:#666666;" text-anchor="end" transform="translate(0,0) rotate(-45 427.24789727814067 385)" y="385" opacity="1"><tspan>Aug. '19</tspan></text><text x="446.1444490022807" style="color:#666666;cursor:default;font-size:11px;fill:#666666;" text-anchor="end" transform="translate(0,0) rotate(-45 446.1444490022807 385)" y="385" opacity="1"><tspan>Oct. '19</tspan></text><text x="465.04100072642063" style="color:#666666;cursor:default;font-size:11px;fill:#666666;" text-anchor="end" transform="translate(0,0) rotate(-45 465.04100072642063 385)" y="385" opacity="1"><tspan>Dec. '19</tspan></text><text x="483.93755245056064" style="color:#666666;cursor:default;font-size:11px;fill:#666666;" text-anchor="end" transform="translate(0,0) rotate(-45 483.93755245056064 385)" y="385" opacity="1"><tspan>Feb. '20</tspan></text><text x="502.83410417469065" style="color:#666666;cursor:default;font-size:11px;fill:#666666;" text-anchor="end" transform="translate(0,0) rotate(-45 502.83410417469065 385)" y="385" opacity="1"><tspan>Apr. '20</tspan></text><text x="521.7306558988306" style="color:#666666;cursor:default;font-size:11px;fill:#666666;" text-anchor="end" transform="translate(0,0) rotate(-45 521.7306558988306 385)" y="385" opacity="1"><tspan>June '20</tspan></text><text x="540.6272076229707" style="color:#666666;cursor:default;font-size:11px;fill:#666666;" text-anchor="end" transform="translate(0,0) rotate(-45 540.6272076229707 385)" y="385" opacity="1"><tspan>Aug. '20</tspan></text><text x="559.5237593471106" style="color:#666666;cursor:default;font-size:11px;fill:#666666;" text-anchor="end" transform="translate(0,0) rotate(-45 559.5237593471106 385)" y="385" opacity="1"><tspan>Oct. '20</tspan></text><text x="578.4203110712507" style="color:#666666;cursor:default;font-size:11px;fill:#666666;" text-anchor="end" transform="translate(0,0) rotate(-45 578.4203110712507 385)" y="385" opacity="1"><tspan>Dec. '20</tspan></text><text x="0" style="color:#666666;cursor:default;font-size:11px;fill:#666666;" text-anchor="end" transform="translate(0,0) rotate(-45 0 0)"><tspan>July '16</tspan></text><text x="0" style="color:#666666;cursor:default;font-size:11px;fill:#666666;" text-anchor="end" transform="translate(0,0) rotate(-45 0 0)"><tspan>Jan. '17</tspan></text><text x="0" style="color:#666666;cursor:default;font-size:11px;fill:#666666;" text-anchor="end" transform="translate(0,0) rotate(-45 0 0)"><tspan>July '17</tspan></text><text x="0" style="color:#666666;cursor:default;font-size:11px;fill:#666666;" text-anchor="end" transform="translate(0,0) rotate(-45 0 0)"><tspan>Jan. '18</tspan></text><text x="0" style="color:#666666;cursor:default;font-size:11px;fill:#666666;" text-anchor="end" transform="translate(0,0) rotate(-45 0 0)"><tspan>July '18</tspan></text><text x="0" style="color:#666666;cursor:default;font-size:11px;fill:#666666;" text-anchor="end" transform="translate(0,0) rotate(-45 0 0)"><tspan>Jan. '19</tspan></text><text x="0" style="color:#666666;cursor:default;font-size:11px;fill:#666666;" text-anchor="end" transform="translate(0,0) rotate(-45 0 0)"><tspan>July '19</tspan></text><text x="0" style="color:#666666;cursor:default;font-size:11px;fill:#666666;" text-anchor="end" transform="translate(0,0) rotate(-45 0 0)"><tspan>Jan. '20</tspan></text><text x="0" style="color:#666666;cursor:default;font-size:11px;fill:#666666;" text-anchor="end" transform="translate(0,0) rotate(-45 0 0)"><tspan>July '20</tspan></text><text x="0" style="color:#666666;cursor:default;font-size:11px;fill:#666666;" text-anchor="end" transform="translate(0,0) rotate(-45 0 0)"><tspan>Jan. '21</tspan></text></g><g class="highcharts-axis-labels highcharts-yaxis-labels " data-z-index="7"><text x="27" style="color:#666666;cursor:default;font-size:11px;fill:#666666;" text-anchor="end" transform="translate(0,0)" y="374" opacity="1">0</text><text x="27" style="color:#666666;cursor:default;font-size:11px;fill:#666666;" text-anchor="end" transform="translate(0,0)" y="306" opacity="1">5k</text><text x="27" style="color:#666666;cursor:default;font-size:11px;fill:#666666;" text-anchor="end" transform="translate(0,0)" y="239" opacity="1">10k</text><text x="27" style="color:#666666;cursor:default;font-size:11px;fill:#666666;" text-anchor="end" transform="translate(0,0)" y="172" opacity="1">15k</text><text x="27" style="color:#666666;cursor:default;font-size:11px;fill:#666666;" text-anchor="end" transform="translate(0,0)" y="105" opacity="1">20k</text></g></svg>